<?xml version="1.0" encoding="utf-8" ?>
<svg baseProfile="full" height="1081" version="1.1" width="1400" xmlns="http://www.w3.org/2000/svg" xmlns:ev="http://www.w3.org/2001/xml-events" xmlns:xlink="http://www.w3.org/1999/xlink"><defs /><polygon fill="rgb(220,220,220)" points="987,557 987,597 990,597 991,598 991,599 992,599 993,600 1104,600 1105,599 1106,599 1106,592 1105,592 1104,591 1005,591 1004,590 1004,557" stroke="rgb(220,220,220)" stroke-width="1" /><polygon fill="rgb(220,220,220)" points="321,548 321,562 322,563 322,564 321,565 321,579 320,580 320,581 319,582 309,582 308,581 304,581 303,582 299,582 298,581 294,581 293,582 251,582 250,581 246,581 245,582 217,582 216,583 214,583 213,582 213,581 208,581 208,588 209,589 213,589 214,588 275,588 276,589 283,589 284,588 287,588 288,589 293,589 294,588 308,588 309,589 313,589 314,588 319,588 321,590 330,590 330,588 331,587 331,563 332,562 353,562 354,563 354,591 353,592 353,599 354,600 354,602 362,602 362,597 363,596 363,592 362,591 363,590 363,585 362,584 362,567 363,566 363,563 364,562 375,562 375,554 363,554 362,553 358,553 357,554 332,554 331,553 331,550 330,549 330,548" stroke="rgb(220,220,220)" stroke-width="1" /><polygon fill="rgb(220,220,220)" points="633,541 633,588 643,588 644,589 648,589 649,590 653,590 654,589 657,589 658,590 669,590 670,589 671,590 675,590 676,589 745,589 746,590 758,590 759,589 824,589 825,590 835,590 836,589 905,589 906,590 915,590 916,589 918,589 918,581 834,581 833,582 831,582 830,581 651,581 650,580 650,579 649,578 649,542 648,542 647,541" stroke="rgb(220,220,220)" stroke-width="1" /><polygon fill="rgb(220,220,220)" points="472,535 472,539 471,540 471,544 473,544 474,545 474,546 473,547 472,547 472,554 471,555 471,560 472,561 472,589 471,590 465,590 464,591 461,591 460,590 456,590 456,607 457,607 458,608 458,609 474,609 475,610 503,610 504,611 509,611 510,610 531,610 532,611 536,611 537,610 540,610 541,611 552,611 553,610 559,610 559,606 557,606 556,605 556,601 511,601 510,600 506,600 505,601 486,601 485,600 485,535" stroke="rgb(220,220,220)" stroke-width="1" /><polygon fill="rgb(220,220,220)" points="520,394 520,399 521,400 521,403 520,404 520,409 521,410 521,418 520,419 520,424 521,425 521,435 520,436 520,440 521,441 521,449 520,450 520,460 521,461 521,463 520,464 520,469 518,471 472,471 471,470 467,470 466,471 465,471 464,470 460,470 459,471 401,471 400,470 393,470 392,471 384,471 383,470 383,469 382,468 382,435 370,435 370,436 369,437 369,469 367,471 322,471 322,475 320,477 320,485 319,486 257,486 256,485 252,485 251,486 250,486 250,492 251,493 251,494 319,494 320,495 320,526 321,526 322,527 331,527 332,526 332,495 333,494 439,494 439,486 333,486 332,485 332,484 334,482 340,482 341,483 345,483 346,482 361,482 362,483 440,483 441,482 470,482 471,483 471,515 472,515 473,516 481,516 481,515 482,514 486,514 486,505 485,504 486,503 486,484 487,483 520,483 521,484 521,496 524,496 526,498 526,500 634,500 635,501 635,521 647,521 647,504 648,503 648,501 649,500 834,500 835,501 840,501 841,500 858,500 859,501 863,501 864,500 986,500 988,502 988,533 989,534 999,534 1000,533 1005,533 1005,521 1004,520 1004,512 1005,511 1005,506 1004,505 1004,494 997,494 996,493 995,493 994,492 994,489 939,489 938,488 937,488 936,487 936,485 937,484 1040,484 1040,476 937,476 936,475 936,438 928,438 928,475 927,476 836,476 835,475 835,411 836,410 864,410 865,409 869,409 870,410 904,410 905,409 907,409 907,400 900,400 899,401 896,401 895,400 830,400 830,401 826,405 826,475 825,476 767,476 767,484 927,484 928,485 928,487 926,489 865,489 864,488 851,488 850,489 809,489 808,488 790,488 789,489 778,489 777,488 767,488 767,490 766,491 736,491 735,490 735,467 734,466 734,465 735,464 735,459 734,458 734,456 735,455 735,450 734,449 734,445 735,444 735,437 720,437 720,440 719,441 719,454 720,455 720,475 719,476 719,483 720,484 720,487 719,488 717,488 716,487 716,484 717,483 717,473 716,472 716,471 706,471 705,472 704,472 704,478 705,479 705,487 704,488 643,488 642,489 569,489 568,488 555,488 554,489 543,489 542,488 537,488 536,487 536,394" stroke="rgb(220,220,220)" stroke-width="1" /><polygon fill="rgb(220,220,220)" points="929,370 929,385 930,386 930,391 929,392 929,407 930,408 930,411 929,412 929,416 937,416 937,412 936,411 936,385 937,384 937,382 938,381 966,381 966,380 967,379 970,379 971,380 971,381 1122,381 1122,380 1123,379 1123,372 1122,371 1122,370 1058,370 1057,371 1055,371 1054,370" stroke="rgb(220,220,220)" stroke-width="1" /><polygon fill="rgb(220,220,220)" points="168,370 168,375 166,377 164,377 164,427 163,428 163,432 164,433 164,434 165,435 174,435 175,434 176,434 176,401 177,400 177,396 176,395 176,381 177,380 366,380 367,381 367,382 368,383 368,410 367,411 367,416 381,416 382,415 408,415 409,414 411,414 411,409 409,409 408,408 394,408 393,409 391,409 390,408 385,408 384,409 382,409 380,407 380,375 378,373 378,370 357,370 356,371 354,371 353,370 278,370 277,371 275,371 274,370" stroke="rgb(220,220,220)" stroke-width="1" /><polygon fill="rgb(220,220,220)" points="721,327 721,332 723,332 724,333 724,335 723,336 721,336 721,368 720,369 652,369 652,370 651,371 651,376 652,377 652,379 720,379 721,380 721,418 733,418 733,417 734,416 734,358 733,357 733,350 734,349 734,343 733,342 733,340 734,339 734,328 733,327" stroke="rgb(220,220,220)" stroke-width="1" /><polygon fill="rgb(255,120,0)" points="508,609 508,630 509,631 518,631 519,630 519,629 520,628 533,628 533,619 528,619 527,620 526,619 520,619 519,618 519,610 518,609" stroke="rgb(255,120,0)" stroke-width="1" /><polygon fill="rgb(255,120,0)" points="451,605 450,606 448,606 448,609 447,610 447,628 448,629 448,630 460,630 460,628 461,627 461,622 460,621 460,619 461,618 461,612 460,611 460,605" stroke="rgb(255,120,0)" stroke-width="1" /><polygon fill="rgb(255,120,0)" points="355,600 354,601 354,617 353,618 353,621 354,622 354,629 364,629 364,601 363,600" stroke="rgb(255,120,0)" stroke-width="1" /><polygon fill="rgb(255,120,0)" points="1093,599 1093,642 1103,642 1103,639 1102,638 1102,618 1103,617 1103,613 1102,612 1102,599" stroke="rgb(255,120,0)" stroke-width="1" /><polygon fill="rgb(255,120,0)" points="1014,598 1014,605 1015,606 1015,622 1014,623 1014,633 1015,634 1015,637 1014,638 1014,641 1025,641 1025,638 1024,637 1024,635 1025,634 1025,629 1024,628 1024,602 1025,601 1025,598" stroke="rgb(255,120,0)" stroke-width="1" /><polygon fill="rgb(255,120,0)" points="829,590 829,617 828,618 828,625 829,626 829,632 830,633 834,633 835,632 836,632 836,623 837,622 837,619 836,618 836,590" stroke="rgb(255,120,0)" stroke-width="1" /><polygon fill="rgb(255,120,0)" points="750,590 750,633 755,633 756,632 759,632 759,590" stroke="rgb(255,120,0)" stroke-width="1" /><polygon fill="rgb(255,120,0)" points="907,588 907,615 906,616 906,619 907,620 907,624 906,625 906,628 907,629 907,631 916,631 916,588" stroke="rgb(255,120,0)" stroke-width="1" /><polygon fill="rgb(255,120,0)" points="662,588 662,630 663,631 670,631 670,588" stroke="rgb(255,120,0)" stroke-width="1" /><polygon fill="rgb(255,120,0)" points="300,588 300,631 308,631 308,588" stroke="rgb(255,120,0)" stroke-width="1" /><polygon fill="rgb(255,120,0)" points="555,587 555,600 554,601 554,608 556,608 557,609 560,609 561,608 586,608 586,587" stroke="rgb(255,120,0)" stroke-width="1" /><polygon fill="rgb(255,120,0)" points="210,587 210,630 219,630 219,588 218,587" stroke="rgb(255,120,0)" stroke-width="1" /><polygon fill="rgb(255,120,0)" points="1094,548 1093,549 1093,593 1102,593 1102,564 1103,563 1103,560 1102,559 1102,555 1103,554 1103,550 1102,549 1102,548" stroke="rgb(255,120,0)" stroke-width="1" /><polygon fill="rgb(255,120,0)" points="828,542 828,553 829,554 829,572 828,573 828,583 829,584 837,584 837,581 836,580 836,553 837,552 837,547 836,546 836,542" stroke="rgb(255,120,0)" stroke-width="1" /><polygon fill="rgb(255,120,0)" points="435,542 435,549 436,550 476,550 476,542" stroke="rgb(255,120,0)" stroke-width="1" /><polygon fill="rgb(255,120,0)" points="211,542 211,585 220,585 220,582 219,581 219,580 220,579 220,575 219,574 219,555 220,554 220,549 219,548 219,542 216,542 215,543 214,542" stroke="rgb(255,120,0)" stroke-width="1" /><polygon fill="rgb(255,120,0)" points="899,541 898,542 898,584 907,584 907,541" stroke="rgb(255,120,0)" stroke-width="1" /><polygon fill="rgb(255,120,0)" points="485,541 485,549 504,549 505,550 514,550 515,549 518,549 519,550 522,550 523,549 525,549 525,541" stroke="rgb(255,120,0)" stroke-width="1" /><polygon fill="rgb(255,120,0)" points="749,539 749,582 757,582 757,539" stroke="rgb(255,120,0)" stroke-width="1" /><polygon fill="rgb(255,120,0)" points="661,538 660,539 660,543 661,544 661,546 660,547 660,552 659,553 648,553 648,564 669,564 669,561 671,559 671,538" stroke="rgb(255,120,0)" stroke-width="1" /><polygon fill="rgb(255,120,0)" points="977,532 977,550 976,551 976,559 986,559 987,558 987,556 988,555 988,537 989,536 1001,536 1002,537 1002,558 1003,558 1004,559 1014,559 1015,560 1015,564 1016,565 1016,570 1015,571 1015,577 1016,578 1016,584 1015,585 1015,594 1024,594 1024,587 1025,586 1025,582 1024,581 1024,564 1025,563 1025,558 1024,557 1024,555 1025,554 1025,550 1016,550 1015,549 1015,533 981,533 980,532" stroke="rgb(255,120,0)" stroke-width="1" /><polygon fill="rgb(255,120,0)" points="358,531 358,549 357,550 357,553 358,554 358,556 370,556 371,555 371,532 370,531" stroke="rgb(255,120,0)" stroke-width="1" /><polygon fill="rgb(255,120,0)" points="337,526 337,529 338,530 338,531 337,532 337,535 338,536 338,551 345,551 345,526" stroke="rgb(255,120,0)" stroke-width="1" /><polygon fill="rgb(255,120,0)" points="323,525 322,526 307,526 307,541 306,542 298,542 298,563 299,564 301,564 302,565 302,567 320,567 321,568 324,568 324,556 309,556 308,555 308,553 309,552 315,552 316,551 323,551 323,530 324,529 331,529 331,525" stroke="rgb(255,120,0)" stroke-width="1" /><polygon fill="rgb(255,120,0)" points="645,520 645,522 644,523 644,528 645,529 645,537 644,538 644,543 645,544 646,544 647,545 647,546 657,546 657,520" stroke="rgb(255,120,0)" stroke-width="1" /><polygon fill="rgb(255,120,0)" points="619,520 619,546 629,546 629,544 630,543 630,520" stroke="rgb(255,120,0)" stroke-width="1" /><polygon fill="rgb(255,120,0)" points="484,511 484,514 487,514 488,515 488,536 503,536 503,511" stroke="rgb(255,120,0)" stroke-width="1" /><polygon fill="rgb(255,120,0)" points="466,510 465,511 465,536 473,536 473,527 472,526 472,517 473,516 473,515 474,514 474,511 471,511 470,510" stroke="rgb(255,120,0)" stroke-width="1" /><polygon fill="rgb(255,120,0)" points="438,481 438,506 474,506 474,481 465,481 465,491 464,492 446,492 445,491 445,481" stroke="rgb(255,120,0)" stroke-width="1" /><polygon fill="rgb(255,120,0)" points="733,468 733,490 732,491 732,494 770,494 770,481 769,480 770,479 770,469 769,468" stroke="rgb(255,120,0)" stroke-width="1" /><polygon fill="rgb(255,120,0)" points="379,415 379,437 380,438 380,439 384,439 384,415" stroke="rgb(255,120,0)" stroke-width="1" /><polygon fill="rgb(255,120,0)" points="938,413 937,414 937,435 938,436 938,438 954,438 954,416 953,415 953,413" stroke="rgb(255,120,0)" stroke-width="1" /><polygon fill="rgb(255,120,0)" points="916,413 916,438 922,438 922,413" stroke="rgb(255,120,0)" stroke-width="1" /><polygon fill="rgb(255,120,0)" points="401,413 401,436 402,437 407,437 408,436 408,413" stroke="rgb(255,120,0)" stroke-width="1" /><polygon fill="rgb(255,120,0)" points="733,409 733,412 732,413 732,416 753,416 754,417 754,437 753,438 733,438 733,441 759,441 759,436 760,435 760,432 759,431 759,418 760,417 779,417 780,416 780,409" stroke="rgb(255,120,0)" stroke-width="1" /><polygon fill="rgb(255,120,0)" points="676,409 676,416 677,416 678,417 683,417 684,416 685,417 698,417 699,416 701,416 702,417 705,417 706,416 720,416 721,417 721,440 724,440 724,416 723,415 723,409" stroke="rgb(255,120,0)" stroke-width="1" /><polygon fill="rgb(255,120,0)" points="862,407 862,418 863,419 863,433 873,433 873,428 874,427 874,422 873,421 873,408 867,408 866,407" stroke="rgb(255,120,0)" stroke-width="1" /><polygon fill="rgb(255,120,0)" points="893,381 893,386 892,387 892,391 893,392 893,394 892,395 892,398 893,399 893,403 903,403 903,382 902,381" stroke="rgb(255,120,0)" stroke-width="1" /><polygon fill="rgb(255,120,0)" points="1053,380 1053,409 1052,410 1052,414 1053,415 1053,416 1052,417 1052,421 1053,422 1053,424 1061,424 1062,423 1062,397 1061,396 1061,394 1062,393 1062,382 1060,380" stroke="rgb(255,120,0)" stroke-width="1" /><polygon fill="rgb(255,120,0)" points="401,380 401,398 402,399 402,401 401,402 401,411 408,411 408,380" stroke="rgb(255,120,0)" stroke-width="1" /><polygon fill="rgb(255,120,0)" points="1114,379 1114,380 1113,381 1113,385 1114,386 1114,400 1113,401 1113,405 1114,406 1114,407 1113,408 1113,412 1114,413 1122,413 1123,412 1123,394 1122,393 1122,379" stroke="rgb(255,120,0)" stroke-width="1" /><polygon fill="rgb(255,120,0)" points="273,379 273,422 281,422 281,379" stroke="rgb(255,120,0)" stroke-width="1" /><polygon fill="rgb(255,120,0)" points="195,379 194,380 194,390 195,391 194,392 194,395 195,396 195,397 194,398 194,420 195,421 195,422 202,422 202,379" stroke="rgb(255,120,0)" stroke-width="1" /><polygon fill="rgb(255,120,0)" points="835,378 835,401 837,401 838,402 844,402 845,401 846,401 846,379 843,379 842,380 840,380 838,378" stroke="rgb(255,120,0)" stroke-width="1" /><polygon fill="rgb(255,120,0)" points="352,378 351,379 351,421 354,421 356,423 356,439 372,439 372,436 365,436 364,435 364,415 362,415 361,414 360,414 359,413 359,378" stroke="rgb(255,120,0)" stroke-width="1" /><polygon fill="rgb(255,120,0)" points="964,377 964,421 974,421 974,377" stroke="rgb(255,120,0)" stroke-width="1" /><polygon fill="rgb(255,120,0)" points="620,358 619,359 619,369 620,370 627,370 628,371 628,376 653,376 653,370 631,370 630,369 630,358" stroke="rgb(255,120,0)" stroke-width="1" /><polygon fill="rgb(255,120,0)" points="1112,334 1112,371 1115,371 1116,372 1119,372 1120,371 1121,371 1121,358 1122,357 1122,354 1121,353 1121,334" stroke="rgb(255,120,0)" stroke-width="1" /><polygon fill="rgb(255,120,0)" points="353,330 352,331 351,331 351,373 360,373 360,370 359,369 359,330" stroke="rgb(255,120,0)" stroke-width="1" /><polygon fill="rgb(255,120,0)" points="277,330 276,331 272,331 272,373 280,373 280,343 281,342 281,339 280,338 280,330" stroke="rgb(255,120,0)" stroke-width="1" /><polygon fill="rgb(255,120,0)" points="194,330 193,331 193,334 194,335 194,337 193,338 193,349 194,350 194,373 202,373 202,330" stroke="rgb(255,120,0)" stroke-width="1" /><polygon fill="rgb(255,120,0)" points="1052,329 1051,330 1051,333 1052,334 1052,346 1051,347 1051,350 1052,351 1052,373 1053,374 1060,374 1061,373 1061,329" stroke="rgb(255,120,0)" stroke-width="1" /><polygon fill="rgb(255,120,0)" points="964,329 964,373 973,373 973,329" stroke="rgb(255,120,0)" stroke-width="1" /><polygon fill="rgb(255,120,0)" points="734,329 733,330 733,337 734,338 779,338 779,329" stroke="rgb(255,120,0)" stroke-width="1" /><polygon fill="rgb(255,120,0)" points="686,328 685,329 681,329 681,340 691,340 693,338 694,339 697,339 698,338 701,338 702,339 705,339 706,338 721,338 722,339 726,339 726,331 725,331 724,330 692,330 690,328" stroke="rgb(255,120,0)" stroke-width="1" /><polygon fill="rgb(80,220,80)" points="991,534 990,535 985,535 985,538 986,539 986,552 985,553 985,558 986,559 1004,559 1004,535 1000,535 999,534" stroke="rgb(80,220,80)" stroke-width="1" /><polygon fill="rgb(80,220,80)" points="321,527 321,550 328,550 329,551 331,551 332,552 339,552 340,551 340,543 339,542 339,535 340,534 340,527" stroke="rgb(80,220,80)" stroke-width="1" /><polygon fill="rgb(80,220,80)" points="642,520 641,521 627,521 627,525 628,526 628,540 627,541 627,545 635,545 636,544 646,544 646,541 647,540 647,520" stroke="rgb(80,220,80)" stroke-width="1" /><polygon fill="rgb(80,220,80)" points="471,512 471,536 483,536 484,537 489,537 490,536 490,512 485,512 483,514 475,514 474,513 474,512" stroke="rgb(80,220,80)" stroke-width="1" /><polygon fill="rgb(80,220,80)" points="443,481 443,494 467,494 467,487 468,486 468,483 467,482 467,481" stroke="rgb(80,220,80)" stroke-width="1" /><polygon fill="rgb(80,220,80)" points="736,474 736,488 761,488 761,474" stroke="rgb(80,220,80)" stroke-width="1" /><polygon fill="rgb(80,220,80)" points="732,416 731,417 722,417 722,440 754,440 755,439 756,439 756,418 755,417 755,416" stroke="rgb(80,220,80)" stroke-width="1" /><polygon fill="rgb(80,220,80)" points="362,414 362,437 381,437 381,433 380,432 380,421 381,420 381,418 382,417 382,414" stroke="rgb(80,220,80)" stroke-width="1" /><polygon fill="rgb(80,220,80)" points="920,413 920,438 939,438 939,413 935,413 934,414 933,414 932,413" stroke="rgb(80,220,80)" stroke-width="1" /><polygon fill="rgb(80,220,80)" points="479,356 479,392 478,393 478,397 479,398 522,398 522,397 523,396 535,396 535,393 534,392 534,360 535,359 535,356" stroke="rgb(80,220,80)" stroke-width="1" /><polygon fill="rgb(190,110,220)" points="510,623 510,625 512,625 512,623" stroke="rgb(190,110,220)" stroke-width="1" /><polygon fill="rgb(190,110,220)" points="666,619 666,621 667,622 667,623 669,623 669,619" stroke="rgb(190,110,220)" stroke-width="1" /><polygon fill="rgb(190,110,220)" points="304,619 304,622 306,622 306,619" stroke="rgb(190,110,220)" stroke-width="1" /><polygon fill="rgb(190,110,220)" points="448,612 448,617 450,617 450,612" stroke="rgb(190,110,220)" stroke-width="1" /><polygon fill="rgb(190,110,220)" points="215,609 215,611 217,611 217,609" stroke="rgb(190,110,220)" stroke-width="1" /><polygon fill="rgb(190,110,220)" points="510,608 510,610 517,610 517,608" stroke="rgb(190,110,220)" stroke-width="1" /><polygon fill="rgb(190,110,220)" points="456,605 456,608 457,609 457,610 460,610 460,605" stroke="rgb(190,110,220)" stroke-width="1" /><polygon fill="rgb(190,110,220)" points="554,601 554,608 559,608 559,601" stroke="rgb(190,110,220)" stroke-width="1" /><polygon fill="rgb(190,110,220)" points="354,600 354,602 362,602 362,600" stroke="rgb(190,110,220)" stroke-width="1" /><polygon fill="rgb(190,110,220)" points="1015,591 1015,593 1024,593 1024,591" stroke="rgb(190,110,220)" stroke-width="1" /><polygon fill="rgb(190,110,220)" points="753,589 753,591 755,591 755,589" stroke="rgb(190,110,220)" stroke-width="1" /><polygon fill="rgb(190,110,220)" points="211,587 211,589 218,589 218,587" stroke="rgb(190,110,220)" stroke-width="1" /><polygon fill="rgb(190,110,220)" points="828,582 828,584 836,584 836,582" stroke="rgb(190,110,220)" stroke-width="1" /><polygon fill="rgb(190,110,220)" points="211,582 211,585 219,585 219,582" stroke="rgb(190,110,220)" stroke-width="1" /><polygon fill="rgb(190,110,220)" points="753,564 753,566 755,566 755,564" stroke="rgb(190,110,220)" stroke-width="1" /><polygon fill="rgb(190,110,220)" points="321,556 321,567 324,567 324,556" stroke="rgb(190,110,220)" stroke-width="1" /><polygon fill="rgb(190,110,220)" points="358,554 358,556 367,556 367,554" stroke="rgb(190,110,220)" stroke-width="1" /><polygon fill="rgb(190,110,220)" points="647,553 647,563 649,563 649,553" stroke="rgb(190,110,220)" stroke-width="1" /><polygon fill="rgb(190,110,220)" points="438,544 438,546 440,546 440,544" stroke="rgb(190,110,220)" stroke-width="1" /><polygon fill="rgb(190,110,220)" points="645,542 645,544 646,545 648,545 648,542" stroke="rgb(190,110,220)" stroke-width="1" /><polygon fill="rgb(190,110,220)" points="515,542 515,544 518,544 518,542" stroke="rgb(190,110,220)" stroke-width="1" /><polygon fill="rgb(190,110,220)" points="471,542 471,546 472,547 472,550 475,550 476,549 476,542" stroke="rgb(190,110,220)" stroke-width="1" /><polygon fill="rgb(190,110,220)" points="472,511 472,513 485,513 485,511" stroke="rgb(190,110,220)" stroke-width="1" /><polygon fill="rgb(190,110,220)" points="466,480 466,482 471,482 472,483 472,506 475,506 475,481 474,481 473,480" stroke="rgb(190,110,220)" stroke-width="1" /><polygon fill="rgb(190,110,220)" points="438,480 438,482 443,482 443,480" stroke="rgb(190,110,220)" stroke-width="1" /><polygon fill="rgb(190,110,220)" points="732,468 732,492 735,492 735,489 734,488 734,468" stroke="rgb(190,110,220)" stroke-width="1" /><polygon fill="rgb(190,110,220)" points="721,438 721,440 734,440 734,438" stroke="rgb(190,110,220)" stroke-width="1" /><polygon fill="rgb(190,110,220)" points="379,436 379,438 381,438 381,436" stroke="rgb(190,110,220)" stroke-width="1" /><polygon fill="rgb(190,110,220)" points="370,436 370,438 377,438 377,436" stroke="rgb(190,110,220)" stroke-width="1" /><polygon fill="rgb(190,110,220)" points="198,414 198,417 200,417 200,414" stroke="rgb(190,110,220)" stroke-width="1" /><polygon fill="rgb(190,110,220)" points="200,410 200,412 202,412 202,410" stroke="rgb(190,110,220)" stroke-width="1" /><polygon fill="rgb(190,110,220)" points="679,408 679,410 681,410 681,408" stroke="rgb(190,110,220)" stroke-width="1" /><polygon fill="rgb(190,110,220)" points="402,408 401,409 401,414 402,415 407,415 407,408" stroke="rgb(190,110,220)" stroke-width="1" /><polygon fill="rgb(190,110,220)" points="862,407 862,409 872,409 872,407" stroke="rgb(190,110,220)" stroke-width="1" /><polygon fill="rgb(190,110,220)" points="892,400 892,402 893,403 902,403 902,401 895,401 894,400" stroke="rgb(190,110,220)" stroke-width="1" /><polygon fill="rgb(190,110,220)" points="1113,379 1113,381 1115,381 1115,379" stroke="rgb(190,110,220)" stroke-width="1" /><polygon fill="rgb(190,110,220)" points="964,377 964,381 973,381 973,377" stroke="rgb(190,110,220)" stroke-width="1" /><polygon fill="rgb(190,110,220)" points="1052,371 1052,373 1060,373 1060,371" stroke="rgb(190,110,220)" stroke-width="1" /><polygon fill="rgb(190,110,220)" points="964,370 964,372 972,372 972,370" stroke="rgb(190,110,220)" stroke-width="1" /><polygon fill="rgb(190,110,220)" points="351,370 351,373 359,373 359,370" stroke="rgb(190,110,220)" stroke-width="1" /><polygon fill="rgb(190,110,220)" points="272,370 272,373 280,373 280,370" stroke="rgb(190,110,220)" stroke-width="1" /><polygon fill="rgb(190,110,220)" points="194,370 194,372 201,372 201,370" stroke="rgb(190,110,220)" stroke-width="1" /><polygon fill="rgb(190,110,220)" points="198,355 198,358 200,358 200,355" stroke="rgb(190,110,220)" stroke-width="1" /><polygon fill="rgb(190,110,220)" points="715,332 715,334 717,334 717,332" stroke="rgb(190,110,220)" stroke-width="1" /><polygon fill="rgb(190,110,220)" points="722,330 722,338 726,338 726,330" stroke="rgb(190,110,220)" stroke-width="1" /></svg>